<?xml version="1.0" encoding="utf-8"?>
<!-- Generator: Adobe Illustrator 23.0.3, SVG Export Plug-In . SVG Version: 6.00 Build 0)  -->
<svg version="1.1" id="Layer_1" xmlns="http://www.w3.org/2000/svg" xmlns:xlink="http://www.w3.org/1999/xlink" x="0px" y="0px"
	 viewBox="0 0 512 512" style="enable-background:new 0 0 512 512;" xml:space="preserve">
<style type="text/css">
	.st0{fill:#F57736;}
	.st1{fill:#EC366B;}
	.st2{fill:#55D292;}
	.st3{fill:#FFFFFF;}
	.st4{fill:#FFCC00;}
	.st5{opacity:0.1;}
	.st6{fill:#F4BC3D;}
</style>
<g id="XMLID_51_">
	<g id="XMLID_2257_">
		<g id="XMLID_2258_">
			<g id="XMLID_2259_">
				<g id="XMLID_2260_">
					<g id="XMLID_2261_">
						<g id="XMLID_2262_">
							<g id="XMLID_2263_">
								<g id="XMLID_2264_">
									<g id="XMLID_2265_">
										<g id="XMLID_2266_">
											<g id="XMLID_2267_">
												<g id="XMLID_2268_">
													<g id="XMLID_2269_">
														<g id="XMLID_2270_">
															<circle id="XMLID_2271_" cx="256" cy="256" r="256"/>
														</g>
													</g>
												</g>
											</g>
										</g>
									</g>
								</g>
							</g>
						</g>
					</g>
				</g>
			</g>
		</g>
	</g>
	<g id="XMLID_1505_">
		<g id="XMLID_3171_">
			<path id="XMLID_1508_" class="st0" d="M100.6,242.5h94.7v144.1h-94.7L100.6,242.5z"/>
			<path id="XMLID_1506_" class="st1" d="M323.7,211.6h94.7v175.1h-94.7V211.6z"/>
			<path id="XMLID_1213_" class="st2" d="M212.2,283.7h94.7v103h-94.7L212.2,283.7z"/>
		</g>
		<g id="XMLID_3213_">
			<path id="XMLID_3214_" class="st3" d="M76.2,380.1h366.6v30H76.2L76.2,380.1z"/>
		</g>
		<path id="XMLID_1172_" class="st4" d="M410.7,79.1l-55.8,4.4l9.3,12.2l-106.1,79.2L142.8,148l-78,36.5l12.7,27.2l68.6-32.1
			l118.8,27.7l117.6-87.8l9.6,12.5L410.7,79.1z"/>
		<path id="XMLID_1636_" class="st5" d="M410.7,79.1L392.1,132l-9.6-12.5l-117.6,87.8l-5.4-1.3v-32.2l104.7-78.2l-9.4-12.2
			L410.7,79.1z"/>
	</g>
	<path id="XMLID_47_" class="st6" d="M0,0"/>
</g>
</svg>
