<?xml version="1.0" encoding="utf-8"?>
<!-- Generator: Adobe Illustrator 23.0.3, SVG Export Plug-In . SVG Version: 6.00 Build 0)  -->
<svg version="1.1" id="be32c85c-9388-4a2b-a4e5-271574a5b9b2"
	 xmlns="http://www.w3.org/2000/svg" xmlns:xlink="http://www.w3.org/1999/xlink" x="0px" y="0px" viewBox="0 0 920 720"
	 style="enable-background:new 0 0 920 720;" xml:space="preserve">
<style type="text/css">
	.st0{fill:#E6E6E6;}
	.st1{fill:#2F2E41;}
	.st2{fill:#FFB8B8;}
	.st3{fill:#5B32BC;}
	.st4{fill:#444053;}
	.st5{opacity:0.1;enable-background:new    ;}
	.st6{fill:#FFFFFF;}
	.st7{fill:#EC366B;}
	.st8{fill:#3F3D56;}
	.st9{fill:#55D292;}
</style>
<title>design_notes</title>
<ellipse class="st0" cx="807.2" cy="665.8" rx="96.3" ry="20"/>
<ellipse class="st1" cx="848.8" cy="177.7" rx="33.2" ry="31.1"/>
<path class="st2" d="M767.4,377.4l-11.8,15.1c0,0-21.8,24.4-37,11.8s25.2-21,25.2-21l8.4-11.8L767.4,377.4z"/>
<path class="st3" d="M805.2,334.5c0,0-36.2,49.6-40.4,51.3s-10.9-9.2-16.8-15.1c-5.9-5.9,29.4-52.1,29.4-52.1s2.4-50.5,5-65.6
	c2.6-15.1,13.5-15.1,13.5-15.1L805.2,334.5z"/>
<path class="st2" d="M862.5,205.8c-6.7,15.2,8.4,26.1,8.4,26.1l-4.2,10.1c-21.9,19.3-54.7,0-54.7,0s-3.4-10.9,6.7-12.6
	c10.1-1.7,10.9-34.5,10.9-34.5L862.5,205.8z"/>
<path class="st4" d="M863.2,410.2l-12.5,121.2c6.8,17.6-3.3,94.2-6.7,99.2c-3.4,5-22.7-0.8-26.9-4.2S817,545,813.6,534
	c-3.3-11-2.5-81.6-2.5-81.6s-27.7,44.6-28.6,45.4s-4.2,14.2,2.5,19.3c6.7,5.1,32,61.5,33.6,69c1.6,7.5-21.8,19.3-26.1,19.3
	s-32-58.9-50.5-87.5c-18.5-28.6,31.1-121.1,31.1-121.1L863.2,410.2z"/>
<path class="st4" d="M840.5,628v38.6L822,680.2c0,0-12.5,8.3-33.6,5c-21.1-3.3,9.2-25.2,9.2-25.2l21-38.7L840.5,628z"/>
<path class="st4" d="M815,584.6c-0.4-0.4,23,53.4,23,53.4l-6.8,6.9c-9,9-21.3,14-34,13.8c-1.5,0-3.1-0.2-4.6-0.5
	c-7.6-1.6,4.2-16.7,8.4-19.3s0-13.5,0-13.5l-10.9-26C790,599.5,815.3,585,815,584.6z"/>
<circle class="st2" cx="850.5" cy="186.5" r="28.6"/>
<path class="st3" d="M888.3,247.9c10.1,5.9,14.3,24.4,14.3,24.4l-29.4,56.2c0,0-7.6,65.7-6.7,81.6s-85.8-5.1-95-7.6
	S785.8,289,785.8,289s-5.8-26.1-2.5-41.2c3.3-15.1,39.9-20.5,39.9-21.4s-4.6,8.8-4.6,8.8c12.6,10.1,39.5,0,39.5,0l8.8-8.8
	C867,226.4,878.2,242.1,888.3,247.9z"/>
<path class="st2" d="M841.2,400.9l-8.4,10.1c0,0-12.6,25.1-34.4,20.1s20.2-33.6,20.2-33.6l10.9-6.7L841.2,400.9z"/>
<path class="st5" d="M864.8,279.8l3.5,65.1c0,0-44.8,46.7-48.1,48.4s12.6,14.4,15.2,16.9c2.6,2.5,48.9-36.2,58.9-50.5s5-84.9,5-84.9
	l-7.6-7.6L864.8,279.8z"/>
<path class="st3" d="M868.3,277.5l3.5,65.1c0,0-44.7,46.7-48.1,48.4s12.5,14.3,15.1,16.8c2.6,2.5,48.9-36.2,58.9-50.5s5-84.9,5-84.9
	l-7.6-7.6L868.3,277.5z"/>
<path class="st1" d="M874.8,155.5c10.6,12,3.1,29.2,3.1,29.2l-5.3-2.2l-11-3.5l3.5,4.4l-15.9-4.4l2.7,4.4l-6.2-1.3l4.4,6.2
	c-3.1,0.4-12.8-10.6-12.8-10.6v5.7c-3.6-0.5-8-7.1-8-7.1l-1.8,9.3l-2.7-0.9l-1.3,5.7l-5.7-11.5l-2,3.8c-3.1-3.5,0-15.9,0-15.9H811
	c1.3-14.1,11.9-15,11.9-15l-7.1-1.8c13.3-7.5,23-4,23-4C848.7,140.8,864.2,143.5,874.8,155.5z"/>
<rect x="38.1" y="103" class="st0" width="643.9" height="412.4"/>
<rect x="56.7" y="154.7" class="st6" width="607" height="336.2"/>
<rect x="38.5" y="102.6" class="st7" width="643.9" height="27.4"/>
<circle class="st6" cx="99.6" cy="116.6" r="5.1"/>
<circle class="st6" cx="80.3" cy="116.6" r="5.1"/>
<circle class="st6" cx="61.1" cy="116.6" r="5.1"/>
<rect x="452.5" y="189.6" class="st0" width="156" height="266.5"/>
<rect x="295.5" y="189.6" class="st7" width="130" height="73.3"/>
<rect x="295.5" y="283.4" class="st0" width="130" height="78.9"/>
<rect x="295.5" y="382.8" class="st0" width="130" height="73.3"/>
<rect x="111.7" y="189.6" class="st0" width="156" height="116.1"/>
<rect x="111.7" y="339.9" class="st7" width="156" height="116.1"/>
<polygon class="st8" points="315.2,57.2 59.2,57.2 59.2,55.1 316.9,55.1 361.2,222.2 359.2,222.8 "/>
<path class="st8" d="M16,56.1L16,56.1C16,43.9,25.9,34,38,34s22.1,9.9,22.1,22.1S50.2,78.2,38,78.2C25.9,78.2,16,68.3,16,56.1z
	 M18,56.1L18,56.1c0,11,9,20,20,20s20-9,20-20s-9-20-20-20S18,45.1,18,56.1z"/>
<circle class="st9" cx="38" cy="56.1" r="8.4"/>
<polygon class="st8" points="186.5,397.6 188.7,397 232.7,562.6 488.8,562.6 488.8,564.8 231,564.8 "/>
<path class="st8" d="M487.8,563.8L487.8,563.8c0-12.2,9.9-22.1,22.1-22.1c12.2,0,22.1,9.9,22.1,22.1c0,12.2-9.9,22.1-22.1,22.1
	C497.6,585.8,487.8,576,487.8,563.8z M489.9,563.6L489.9,563.6c0,11,9,20,20,20c11,0,20-9,20-20s-9-20-20-20
	C498.8,543.8,489.9,552.6,489.9,563.6z"/>
<circle class="st9" cx="509.9" cy="563.8" r="8.4"/>
</svg>
