<svg id="Layer_1" data-name="Layer 1" xmlns="http://www.w3.org/2000/svg" viewBox="0 0 495.65 403.54"><defs><style>.cls-1{fill:#424242;}.cls-2{fill:#e8edef;}.cls-3{fill:#c8ced6;}.cls-12,.cls-4{fill:#212938;}.cls-5{fill:#284363;}.cls-6{fill:#0f6cdb;}.cls-7{opacity:0.1;}.cls-8{fill:#fff;}.cls-9{fill:#d52f5b;}.cls-10{fill:#e3e3e3;}.cls-11{fill:#bf2e55;}.cls-12{stroke:#666;stroke-miterlimit:10;}.cls-13{isolation:isolate;}.cls-14{fill:#b2b2b2;}</style></defs><title>yourstore_logo_final_white</title><polygon class="cls-1" points="177.46 129.47 175.04 134.93 18.5 210.65 5.72 211.41 11.41 205.45 171.8 129.47 177.46 129.47"/><path class="cls-2" d="M309.17,237.32a5.05,5.05,0,0,0-3.09-4.35l-128-61.09L6.4,253.82c0,6.45,4.17,12.43,11,15.67l114.48,54.64a28.18,28.18,0,0,0,23.85,0L296.6,256.85c7.79-3.74,12.61-10.6,12.61-18l0-1.49Z" transform="translate(-0.68 -42.42)"/><path class="cls-3" d="M306.37,241.88l-150.44,71.8a28.18,28.18,0,0,1-23.85,0L6.4,253.82c0,3.17-.68,6.47.93,8.76,1.8,2.55,6.86,5.27,10.3,6.91l114.48,54.64a28.18,28.18,0,0,0,23.85,0l140.92-67.28c5.17-2.48,12.61-5.16,12.61-8.72V237.44A5,5,0,0,1,306.37,241.88Z" transform="translate(-0.68 -42.42)"/><polygon class="cls-4" points="39.72 194.86 55.25 202.36 158.37 153.09 142.99 145.82 39.72 194.86"/><path class="cls-5" d="M174.84,45.12h0l-3-1.43a13.47,13.47,0,0,0-11.41,0L12.76,114.21c-7.47,3.56-12,10.13-12,17.25V245.67c0,3.36,2.19,6.48,5.72,8.17l171.74-81.93V49.64A5.16,5.16,0,0,0,174.84,45.12Z" transform="translate(-0.68 -42.42)"/><path class="cls-4" d="M6.4,134.08c0-7,4.55-13.54,11.91-17.05l.15-.06h0L168.84,45.2a7.22,7.22,0,0,1,6-.09h0l-3-1.43a13.47,13.47,0,0,0-11.41,0L12.73,114.21c-7.47,3.56-12,10.13-12,17.25V245.67c0,3.36,2.19,6.48,5.72,8.17V134.08Z" transform="translate(-0.68 -42.42)"/><polygon class="cls-6" points="11.41 85.72 11.41 200.46 171.8 123.96 171.8 9.16 11.41 85.72"/><g class="cls-7"><polygon class="cls-8" points="81.46 167.07 160.53 129.33 171.8 103.44 171.8 9.16 144.36 22.26 81.46 167.07"/></g><g class="cls-7"><polygon class="cls-8" points="110.94 38.2 41.74 71.24 11.41 141.06 11.41 200.46 48.07 182.98 110.94 38.2"/></g><path class="cls-9" d="M200.21,91.91l-27-41.24L12.09,128.13v28.2l27,13V182.6c0,7.94,10.39,12.87,18.68,8.9h0C66.21,187.47,71.4,180,71.4,172V153.81l32.34-15.53v13.25c0,7.94,10.39,12.87,18.68,8.9,8.44-4,13.63-11.47,13.63-19.53V122.74l32.34-15.53v13.22c0,7.94,10.39,12.87,18.68,8.9,8.44-4,13.16-11.24,13.16-19.29l0-18.13Z" transform="translate(-0.68 -42.42)"/><path class="cls-10" d="M103.71,138.26l-27.5-41-32.3,15.53,27.52,41V167c0,7.94,10.39,12.87,18.68,8.9s13.63-11.47,13.63-19.53l0-18.15Z" transform="translate(-0.68 -42.42)"/><path class="cls-10" d="M140.87,66.19l-32.28,15.5,27.5,41V136c0,7.94,10.39,12.87,18.68,8.9s13.63-11.47,13.63-19.53V107.2Z" transform="translate(-0.68 -42.42)"/><path class="cls-11" d="M39.06,169.32V182.6c0,7.94,10.39,12.87,18.68,8.9h0c8.44-4,13.63-11.47,13.63-19.53V153.79Z" transform="translate(-0.68 -42.42)"/><path class="cls-3" d="M71.43,153.79v13.28c0,7.94,10.39,12.87,18.68,8.9h0c8.44-4,13.63-11.47,13.63-19.53V138.26Z" transform="translate(-0.68 -42.42)"/><path class="cls-11" d="M103.71,138.26v13.28c0,7.94,10.39,12.87,18.68,8.9h0c8.44-4,13.63-11.47,13.63-19.53V122.73Z" transform="translate(-0.68 -42.42)"/><path class="cls-11" d="M168.39,107.2v13.28c0,7.94,10.39,12.87,18.68,8.9h0c8.44-4,13.16-11.24,13.16-19.29V91.91Z" transform="translate(-0.68 -42.42)"/><path class="cls-3" d="M136.08,122.73V136c0,7.94,10.39,12.87,18.68,8.9h0c8.44-4,13.63-11.47,13.63-19.53V107.2Z" transform="translate(-0.68 -42.42)"/><polygon class="cls-11" points="38.38 126.91 11.41 113.92 11.41 85.72 38.38 126.91"/><path class="cls-12" d="M127.56,230.87c.73.35.73.93,0,1.26l-6.68,3.33a3.28,3.28,0,0,1-2.57,0l-7-3.42c-.73-.35-.7-.93,0-1.28l6.71-3.33a3.28,3.28,0,0,1,2.57,0Z" transform="translate(-0.68 -42.42)"/><g class="cls-13"><path class="cls-12" d="M227.73,206c.47.23.5.61,0,.88l-20,9.87a2.38,2.38,0,0,1-1.78,0l-7.73-3.82c-.5-.23-.5-.64,0-.88l20-9.87a2.38,2.38,0,0,1,1.78,0Z" transform="translate(-0.68 -42.42)"/><path class="cls-12" d="M189.64,212.34c.7.35.7.93,0,1.26l-6.71,3.33a3.28,3.28,0,0,1-2.57,0l-7-3.42c-.7-.35-.7-.93,0-1.26l6.68-3.33a3.28,3.28,0,0,1,2.57,0Z" transform="translate(-0.68 -42.42)"/><path class="cls-12" d="M177.27,218.5c.67.32.67.9,0,1.26l-6.83,3.36a3.26,3.26,0,0,1-2.51,0l-7-3.47c-.67-.32-.7-.9,0-1.23l6.8-3.39a3.26,3.26,0,0,1,2.51,0Z" transform="translate(-0.68 -42.42)"/><path class="cls-12" d="M240.05,212.05c.47.26.53.64,0,.88l-26,12.81a2.38,2.38,0,0,1-1.78,0l-7.76-3.82c-.47-.23-.47-.64,0-.88l25.92-12.81a2.38,2.38,0,0,1,1.78,0Z" transform="translate(-0.68 -42.42)"/><path class="cls-12" d="M208.85,227.11c.67.32.67.9,0,1.23l-6.8,3.39a3.26,3.26,0,0,1-2.51,0l-7-3.5a0,0,0,0,1,0,0c-.67-.32-.67-.88,0-1.23l6.8-3.39a3.26,3.26,0,0,1,2.51,0Z" transform="translate(-0.68 -42.42)"/><path class="cls-12" d="M196.41,233.27c.7.35.7.9,0,1.23l-6.8,3.36a3.26,3.26,0,0,1-2.51,0L180,234.42a0,0,0,0,1,0,0c-.67-.32-.64-.88,0-1.23l6.8-3.39a3.26,3.26,0,0,1,2.51,0Z" transform="translate(-0.68 -42.42)"/><path class="cls-12" d="M139.88,236.94c.67.32.67.9,0,1.23l-6.8,3.39a3.13,3.13,0,0,1-2.51,0l-7-3.47c-.67-.32-.67-.9,0-1.23l6.83-3.39a3.13,3.13,0,0,1,2.51,0Z" transform="translate(-0.68 -42.42)"/><path class="cls-12" d="M127.47,243.16c.67.32.64.88,0,1.23l-6.8,3.39a3.26,3.26,0,0,1-2.51,0l-7-3.47c-.67-.32-.7-.9,0-1.23l6.8-3.39a3.26,3.26,0,0,1,2.51,0l7.09,3.47S127.47,243.13,127.47,243.16Z" transform="translate(-0.68 -42.42)"/><path class="cls-12" d="M171.3,245.58c.67.32.67.9,0,1.26l-6.8,3.39a3.26,3.26,0,0,1-2.51,0l-7-3.47a0,0,0,0,1,0,0c-.67-.32-.61-.88,0-1.23l6.8-3.39a3.13,3.13,0,0,1,2.51,0Z" transform="translate(-0.68 -42.42)"/><path class="cls-12" d="M158.89,251.76c.67.32.7.9,0,1.23l-6.83,3.39a3.26,3.26,0,0,1-2.51,0l-7.06-3.47c-.67-.32-.67-.9,0-1.23l6.8-3.39a3.13,3.13,0,0,1,2.51,0Z" transform="translate(-0.68 -42.42)"/><path class="cls-12" d="M140.64,248.65c.67.32.7.9,0,1.23l-6.83,3.39a3.26,3.26,0,0,1-2.51,0l-7.06-3.47c-.67-.32-.67-.9,0-1.23l6.8-3.39a3.13,3.13,0,0,1,2.51,0Z" transform="translate(-0.68 -42.42)"/><path class="cls-12" d="M114.92,249.26c.73.35.73.93,0,1.26l-6.71,3.33a3.35,3.35,0,0,1-2.6,0l-6.92-3.42c-.73-.35-.73-.93,0-1.28l6.68-3.33a3.28,3.28,0,0,1,2.57,0Z" transform="translate(-0.68 -42.42)"/><path class="cls-12" d="M128.23,254.81c.67.32.67.9,0,1.26l-6.8,3.39a3.13,3.13,0,0,1-2.51,0l-7-3.47c-.67-.32-.67-.9,0-1.23l6.8-3.39a3.13,3.13,0,0,1,2.51,0Z" transform="translate(-0.68 -42.42)"/><path class="cls-12" d="M102.52,255.45c.67.32.67.9,0,1.26L95.78,260a3.28,3.28,0,0,1-2.57,0l-6.95-3.42c-.7-.35-.7-.93,0-1.26L93,252a3.41,3.41,0,0,1,2.57,0l6.92,3.44C102.49,255.42,102.49,255.45,102.52,255.45Z" transform="translate(-0.68 -42.42)"/><path class="cls-12" d="M77.82,255.48c.73.35.73.93,0,1.26l-6.71,3.33a3.28,3.28,0,0,1-2.57,0l-6.95-3.42c-.73-.35-.73-.93,0-1.28L68.33,252a3.41,3.41,0,0,1,2.57,0Z" transform="translate(-0.68 -42.42)"/><path class="cls-12" d="M222.68,232.89c.58.29.64.73.26,1.08l-57.68,28.58a3.49,3.49,0,0,1-2.6,0l-6.95-3.39c-.73-.35-.73-.93,0-1.28l2.74-1.34,55.11-27.17a3.39,3.39,0,0,1,2.19.15Z" transform="translate(-0.68 -42.42)"/><path class="cls-12" d="M115.74,260.94c.7.35.7.93,0,1.26L109,265.53a3.28,3.28,0,0,1-2.57,0l-7-3.39c-.7-.35-.73-.93,0-1.26l6.71-3.33a3.35,3.35,0,0,1,2.6,0Z" transform="translate(-0.68 -42.42)"/><path class="cls-12" d="M65.39,261.64c.7.35.73.93,0,1.26l-6.71,3.33a3.35,3.35,0,0,1-2.6,0l-7-3.42c-.7-.35-.7-.93,0-1.26l6.71-3.33a3.41,3.41,0,0,1,2.57,0Z" transform="translate(-0.68 -42.42)"/><path class="cls-12" d="M134.19,264c.67.32.67.9,0,1.23l-6.83,3.36a3.13,3.13,0,0,1-2.51,0l-7-3.47c-.67-.32-.7-.9,0-1.26l6.8-3.39a3.26,3.26,0,0,1,2.51,0Z" transform="translate(-0.68 -42.42)"/><path class="cls-12" d="M159.64,264.27c.55.26.58.73,0,1l-14.39,7.09a2.69,2.69,0,0,1-2,0l-7.5-3.71c-.55-.26-.55-.73,0-1l14.36-7.09a2.61,2.61,0,0,1,2,0Z" transform="translate(-0.68 -42.42)"/><path class="cls-12" d="M87.54,262.81c.7.35.73.93,0,1.28L71,272.26a3.28,3.28,0,0,1-2.57,0l-7-3.42c-.7-.35-.73-.93,0-1.28L78,259.36a3.28,3.28,0,0,1,2.57,0Z" transform="translate(-0.68 -42.42)"/><path class="cls-12" d="M139.85,273.75c.7.35.7.93,0,1.26l-6.74,3.33a3.28,3.28,0,0,1-2.57,0l-6.95-3.42c-.7-.35-.7-.93,0-1.26l6.71-3.33a3.41,3.41,0,0,1,2.57,0Z" transform="translate(-0.68 -42.42)"/><path class="cls-12" d="M102.31,267.53c.73.35.73.93,0,1.28l-19.15,9.46a3.28,3.28,0,0,1-2.57,0l-6.92-3.42c-.73-.35-.73-.93,0-1.28l19.18-9.49a3.35,3.35,0,0,1,2.6,0Z" transform="translate(-0.68 -42.42)"/><path class="cls-12" d="M120.79,270.6c.7.35.7.93,0,1.26L95.51,284.35a3.41,3.41,0,0,1-2.57,0L86,280.93c-.76-.35-.73-.93,0-1.26l25.31-12.49a3.41,3.41,0,0,1,2.57,0Z" transform="translate(-0.68 -42.42)"/><path class="cls-12" d="M127.38,279.91c.7.35.7.93,0,1.26l-6.71,3.33a3.28,3.28,0,0,1-2.57,0l-6.95-3.42c-.7-.35-.7-.93,0-1.28l6.71-3.3a3.15,3.15,0,0,1,2.57,0Z" transform="translate(-0.68 -42.42)"/><path class="cls-12" d="M202.81,193.69c.7.35.7.93,0,1.26L184,204.26a3.28,3.28,0,0,1-2.57,0l-6.92-3.42c-.7-.35-.73-.93,0-1.28l18.77-9.28a3.28,3.28,0,0,1,2.57,0Z" transform="translate(-0.68 -42.42)"/><path class="cls-12" d="M214.77,199.93c.7.35.73.93,0,1.28l-6.71,3.33a3.28,3.28,0,0,1-2.57,0l-7-3.42c-.7-.35-.7-.93,0-1.26l6.71-3.33a3.35,3.35,0,0,1,2.6,0Z" transform="translate(-0.68 -42.42)"/><path class="cls-12" d="M202.14,206.18c.7.35.73.93,0,1.28l-6.71,3.33a3.28,3.28,0,0,1-2.57,0l-7-3.42c-.7-.35-.7-.93,0-1.26l6.71-3.33a3.35,3.35,0,0,1,2.6,0Z" transform="translate(-0.68 -42.42)"/><path class="cls-12" d="M177.35,206.27c.73.35.73.93,0,1.26l-6.71,3.33a3.35,3.35,0,0,1-2.6,0l-6.95-3.42c-.73-.35-.7-.93,0-1.28l6.71-3.33a3.35,3.35,0,0,1,2.6,0Z" transform="translate(-0.68 -42.42)"/><path class="cls-12" d="M164.92,212.43c.7.35.7.93,0,1.26L158.24,217a3.35,3.35,0,0,1-2.6,0l-6.92-3.42c-.73-.35-.7-.93,0-1.28L155.4,209a3.28,3.28,0,0,1,2.57,0Z" transform="translate(-0.68 -42.42)"/><path class="cls-12" d="M202.87,217.91c.67.32.67.9,0,1.23L196,222.53a3.26,3.26,0,0,1-2.51,0l-7-3.47c-.7-.35-.7-.9,0-1.23l6.8-3.39a3.13,3.13,0,0,1,2.51,0Z" transform="translate(-0.68 -42.42)"/><path class="cls-12" d="M152.46,218.59c.7.35.7.93,0,1.26l-6.68,3.33a3.28,3.28,0,0,1-2.57,0l-7-3.42c-.7-.35-.7-.93,0-1.26l6.71-3.33a3.28,3.28,0,0,1,2.57,0Z" transform="translate(-0.68 -42.42)"/><path class="cls-12" d="M190.43,224c.67.32.7.9,0,1.23l-6.86,3.39a3.26,3.26,0,0,1-2.51,0L174,225.19c-.67-.32-.67-.9,0-1.23l6.8-3.39a3.26,3.26,0,0,1,2.51,0Z" transform="translate(-0.68 -42.42)"/><path class="cls-12" d="M164.77,224.66c.7.35.7.9,0,1.23l-6.8,3.39a3.13,3.13,0,0,1-2.51,0l-7.06-3.47c-.67-.32-.67-.9,0-1.23l6.83-3.39a3.26,3.26,0,0,1,2.51,0Z" transform="translate(-0.68 -42.42)"/><path class="cls-12" d="M241.39,223.9c.53.26.55.7,0,1L227,232a2.61,2.61,0,0,1-2,0l-7.53-3.71c-.53-.26-.55-.7,0-1l14.36-7.09a2.48,2.48,0,0,1,2,0Z" transform="translate(-0.68 -42.42)"/><path class="cls-12" d="M178,230.23c.67.32.67.9,0,1.23l-6.83,3.39a3.13,3.13,0,0,1-2.51,0l-7-3.47c-.67-.32-.67-.9,0-1.23l6.8-3.39a3.13,3.13,0,0,1,2.51,0Z" transform="translate(-0.68 -42.42)"/><path class="cls-12" d="M152.34,230.82c.67.32.7.9,0,1.23l-6.8,3.39a3.13,3.13,0,0,1-2.51,0l-7-3.47c-.67-.32-.67-.9,0-1.26l6.8-3.39a3.26,3.26,0,0,1,2.51,0Z" transform="translate(-0.68 -42.42)"/><path class="cls-12" d="M165.53,236.36c.67.32.67.9,0,1.23L158.7,241a3.26,3.26,0,0,1-2.51,0l-7-3.5c-.67-.32-.7-.9,0-1.23l6.8-3.39a3.2,3.2,0,0,1,2.54,0Z" transform="translate(-0.68 -42.42)"/><path class="cls-12" d="M115.15,237c.7.35.73.93,0,1.26l-6.71,3.33a3.35,3.35,0,0,1-2.6,0L99,238.2c-.73-.35-.73-.93,0-1.28l6.71-3.33a3.41,3.41,0,0,1,2.57,0Z" transform="translate(-0.68 -42.42)"/><path class="cls-12" d="M184,239.43c.67.32.7.9,0,1.23l-6.8,3.39a3.13,3.13,0,0,1-2.51,0l-7-3.47s0,0,0,0c-.67-.32-.64-.88,0-1.23l6.8-3.39a3.26,3.26,0,0,1,2.51,0Z" transform="translate(-0.68 -42.42)"/><path class="cls-12" d="M153.1,242.49c.7.35.7.9,0,1.23l-6.83,3.39a3.26,3.26,0,0,1-2.51,0l-7-3.47c-.7-.35-.7-.9,0-1.23l6.8-3.39a3.13,3.13,0,0,1,2.51,0Z" transform="translate(-0.68 -42.42)"/><path class="cls-12" d="M102.72,243.19c.7.35.7.93,0,1.26L96,247.78a3.28,3.28,0,0,1-2.57,0l-7-3.42c-.7-.35-.7-.93,0-1.26l6.71-3.33a3.41,3.41,0,0,1,2.57,0Z" transform="translate(-0.68 -42.42)"/><path class="cls-12" d="M90.29,249.32c.7.35.7.93,0,1.26l-6.71,3.33a3.41,3.41,0,0,1-2.57,0l-7-3.42c-.7-.35-.73-.93,0-1.28l6.71-3.33a3.28,3.28,0,0,1,2.57,0Z" transform="translate(-0.68 -42.42)"/><path class="cls-12" d="M146.65,257.84c.7.35.7.9,0,1.23l-6.8,3.39a3.26,3.26,0,0,1-2.51,0L130.31,259a0,0,0,0,1,0,0c-.67-.32-.64-.88,0-1.23l6.8-3.39a3.26,3.26,0,0,1,2.51,0Z" transform="translate(-0.68 -42.42)"/></g><path class="cls-12" d="M140.05,224.71c.7.35.7.93,0,1.26l-6.71,3.33a3.28,3.28,0,0,1-2.57,0l-7-3.42c-.7-.35-.7-.93,0-1.28l6.71-3.33a3.28,3.28,0,0,1,2.57,0Z" transform="translate(-0.68 -42.42)"/><path class="cls-12" d="M115,286.07c.73.35.73.93,0,1.26l-6.71,3.33a3.28,3.28,0,0,1-2.57,0l-7-3.42c-.73-.35-.7-.93,0-1.28l6.71-3.33a3.28,3.28,0,0,1,2.57,0Z" transform="translate(-0.68 -42.42)"/><path class="cls-12" d="M252.4,218.12c.73.35.73.93,0,1.28l-6.68,3.33a3.35,3.35,0,0,1-2.6,0l-7-3.42c-.73-.35-.73-.93,0-1.26l6.71-3.33a3.28,3.28,0,0,1,2.57,0Z" transform="translate(-0.68 -42.42)"/><polygon class="cls-14" points="206.48 244.54 206.48 246.63 211.04 246.75 241.36 232.27 241.04 230.14 236.84 230.14 206.48 244.54"/><g class="cls-13"><path class="cls-8" d="M6.13,442.6l3.25-10.48c2.62,1.46,5.34,2.41,7.12,2.41,2.94,0,5.24-.95,6.4-2.94l1.88-4L2.25,372.9H18.08l14.25,38,13.52-38H61.47L39.25,429.81C35.16,440.4,28.24,446,19.75,446A31.17,31.17,0,0,1,6.13,442.6Z" transform="translate(-0.68 -42.42)"/><path class="cls-8" d="M64.61,399.94c0-15.41,13.53-28.3,29.67-28.3s29.45,12.89,29.45,28.3-13.42,28.4-29.45,28.4S64.61,415.35,64.61,399.94Zm44.55,0c0-8.39-6.81-15.41-14.88-15.41s-15,7-15,15.41,6.81,15.51,15,15.51S109.16,408.32,109.16,399.94Z" transform="translate(-0.68 -42.42)"/><path class="cls-8" d="M185.36,372.9v54.18H170.05v-6.81c-3.25,4.93-9.32,8.07-16.35,8.07-11.74,0-20.12-8.7-20.12-21V372.9h14.78v31.23c0,6.71,4.19,11.32,10.27,11.32C165,415.45,170,410.84,170,405l.1.31V372.9Z" transform="translate(-0.68 -42.42)"/><path class="cls-8" d="M232.31,371.64v12.89c-11.32,0-18.55,6.5-18.55,16.67v25.88h-15.3V372.9h15.3V383A20.21,20.21,0,0,1,232.31,371.64Z" transform="translate(-0.68 -42.42)"/><path class="cls-8" d="M237,420.17l6.6-10.59a30.82,30.82,0,0,0,18.13,6.08c4.09,0,7-1.68,7-4.09,0-3.35-4-4.4-9.54-5.87-11.11-2.72-19.71-5.76-19.81-16.45-.11-10.27,8.38-17.61,21.17-17.61A39.34,39.34,0,0,1,282,378.35l-6.18,10.9c-4.93-3-10.59-4.82-15.2-4.82-3.77,0-6.39,1.36-6.39,3.25,0,2.93,2.2,3.77,9.54,5.76,9.32,2.41,19.7,5.56,19.7,17.4,0,10.69-8.7,17.5-22,17.5C252.75,428.34,243.53,425.41,237,420.17Z" transform="translate(-0.68 -42.42)"/><path class="cls-8" d="M325.91,423.63a19.75,19.75,0,0,1-12.47,4.71c-9.54,0-16.25-6.81-16.25-16.56V385.26h-7.44V372.9h7.44V358h14.67V372.9H323.6v12.36H311.86v24.11c0,3.57,2.31,6.08,5.14,6.08a7.86,7.86,0,0,0,5.24-1.78Z" transform="translate(-0.68 -42.42)"/><path class="cls-8" d="M332.41,399.94c0-15.41,13.52-28.3,29.66-28.3s29.45,12.89,29.45,28.3-13.41,28.4-29.45,28.4S332.41,415.35,332.41,399.94Zm44.54,0c0-8.39-6.81-15.41-14.88-15.41s-15,7-15,15.41,6.81,15.51,15,15.51S377,408.32,377,399.94Z" transform="translate(-0.68 -42.42)"/><path class="cls-8" d="M435.75,371.64v12.89c-11.32,0-18.55,6.5-18.55,16.67v25.88H401.9V372.9h15.3V383A20.21,20.21,0,0,1,435.75,371.64Z" transform="translate(-0.68 -42.42)"/><path class="cls-8" d="M482.6,410l9.75,10c-4.82,5-14.15,8.38-22.12,8.38-16.14,0-28.72-11.84-28.72-28.51,0-16.35,12.06-28.19,27.89-28.19,17,0,26.93,12.89,26.93,33.33H457.24c1.78,5.87,6.5,9.85,12.89,9.85A19.6,19.6,0,0,0,482.6,410Zm-25.15-16h24.21c-1.47-5.34-5.45-8.8-11.64-8.8A13.09,13.09,0,0,0,457.45,394Z" transform="translate(-0.68 -42.42)"/></g></svg>